inDegrees=yes
name=ik_lifting_orientations
DataType=double
version=3
OpenSimVersion=4.5-2024-01-10-34fd6af
endheader
time	pelvis_tilt	pelvis_list	pelvis_rotation	pelvis_tx	pelvis_ty	pelvis_tz	hip_flexion_r	hip_adduction_r	hip_rotation_r	knee_angle_r	knee_angle_r_beta	ankle_angle_r	subtalar_angle_r	mtp_angle_r	hip_flexion_l	hip_adduction_l	hip_rotation_l	knee_angle_l	knee_angle_l_beta	ankle_angle_l	subtalar_angle_l	mtp_angle_l	lumbar_extension	lumbar_bending	lumbar_rotation	arm_flex_r	arm_add_r	arm_rot_r	elbow_flex_r	pro_sup_r	wrist_flex_r	wrist_dev_r	arm_flex_l	arm_add_l	arm_rot_l	elbow_flex_l	pro_sup_l	wrist_flex_l	wrist_dev_l
1.41	0.02757277990901621	30.09999391246113	-94.79867346567603	0	0.9399999998679526	0	44.9298299222785	-10.03360984162009	0	59.87553709376199	1.045025263686143	-5.006033173468893	0	0	44.9298299222785	-10.03360984162009	0	59.87553709376199	1.045025263686143	-5.006033173468893	0	0	-23.78117964313573	-10.30310224155082	6.964450740264101	56.36194581154828	-4.695318181164372	-13.80965413547031	5.169560411234216	1.324943137487479	0	0	0	-12.32373444120463	0	88.69566604024567	1.324943137487479	0	0
1.42	0.04013177375586932	29.7225254404548	-94.49053938808403	0	0.9399999998679526	0	44.92985407477847	-10.03356930865757	0	59.87557068073035	1.045025849889327	-5.006023677233512	0	0	44.92985407477847	-10.03356930865757	0	59.87557068073035	1.045025849889327	-5.006023677233512	0	0	-23.77884078409911	-10.08859339968047	6.568768745929308	56.35932533586981	-5.252870842315276	-13.64865466637593	5.673650704387024	1.324626041853614	0	0	0	-12.32420556441459	0	88.6959781598748	1.324626041853614	0	0
1.43	0.1445610370148231	29.37464104322436	-94.47495394031411	0	0.9399999998679526	0	44.92986981939973	-10.03354293497919	0	59.87559259727896	1.045026232405261	-5.006017501526292	0	0	44.92986981939973	-10.03354293497919	0	59.87559259727896	1.045026232405261	-5.006017501526292	0	0	-23.62331204433985	-10.05031433711948	6.436993384308298	56.34391597733373	-5.769553410433938	-13.51203120114231	6.159978428040225	1.324419240488474	0	0	0	-12.32451292828732	0	88.69618171602418	1.324419240488474	0	0
1.44	0.2365399159297393	29.03495187624509	-94.45175003218613	0	0.9399999998679526	0	44.92988592650926	-10.0335159669348	0	59.87561501776723	1.045026623716601	-5.006011188067589	0	0	44.92988592650926	-10.0335159669348	0	59.87561501776723	1.045026623716601	-5.006011188067589	0	0	-23.44741859506997	-10.00754336536793	6.314537276784812	56.31876474959272	-6.27923816029967	-13.35488521636424	6.661884585275228	1.324207669615663	0	0	0	-12.32482738600817	0	88.69638996683635	1.324207669615663	0	0
1.45	0.332084821608196	28.43687371721833	-94.41794075335733	0	0.9399999998679526	0	44.93018532617172	-10.03317755288163	0	59.87614718775248	1.045035911835024	-5.005938837746246	0	0	44.93018532617172	-10.03317755288163	0	59.87614718775248	1.045035911835024	-5.005938837746246	0	0	-23.49000296551539	-9.958457461093902	6.128518708817583	56.3083725047753	-6.964997269178716	-13.0195021753146	7.502092288725311	1.319861435050941	0	0	0	-12.33181659601709	0	88.70066800915787	1.319861435050941	0	0
1.46	0.3883895858066845	27.90910454323656	-94.50325636334344	0	0.9399999998679526	0	44.93020554481011	-10.03314391410013	0	59.87617532911655	1.045036402994483	-5.005930979833868	0	0	44.93020554481011	-10.03314391410013	0	59.87617532911655	1.045036402994483	-5.005930979833868	0	0	-23.27388031717744	-9.883278331832221	6.035226710303008	55.95721927194457	-7.33068310717883	-12.77859532242642	7.878450253447163	1.319595588041867	0	0	0	-12.33221199077617	0	88.70092968439404	1.319595588041867	0	0
1.47	0.4865565362237715	27.41941097257352	-94.60430310998049	0	0.9399999998679526	0	44.93023353878051	-10.03309732374959	0	59.87621425691199	1.045037082412684	-5.005920098092043	0	0	44.93023353878051	-10.03309732374959	0	59.87621425691199	1.045037082412684	-5.005920098092043	0	0	-22.98731532442006	-9.938756723130519	6.095635422097843	55.49847607496096	-7.918903419807259	-12.87249680705432	8.289071553524563	1.319227607002953	0	0	0	-12.33275914674194	0	88.70129189093159	1.319227607002953	0	0
1.48	0.4977979399060958	26.78144970405551	-94.61096269221007	0	0.9399999998679526	0	44.93025522040183	-10.03306131238097	0	59.87624443726619	1.045037609159234	-5.005911692230184	0	0	44.93025522040183	-10.03306131238097	0	59.87624443726619	1.045037609159234	-5.005911692230184	0	0	-22.88471574776517	-9.91954385322785	6.159113692812492	54.8281175192543	-8.621233266035436	-13.02318358390669	9.12850948674533	1.318942469174522	0	0	0	-12.3331832789198	0	88.70157255427013	1.318942469174522	0	0
1.49	0.5167140679615568	26.16590975037586	-94.422855148485	0	0.9399999998679526	0	44.93028441705088	-10.03301283417855	0	59.87628506027141	1.045038318164427	-5.005900379563055	0	0	44.93028441705088	-10.03301283417855	0	59.87628506027141	1.045038318164427	-5.005900379563055	0	0	-22.74824814762599	-9.821884053520895	6.074274743157664	54.07849811902742	-9.343050987373493	-13.05008910622011	9.922323226613415	1.318558533757165	0	0	0	-12.33375430943868	0	88.7019504648284	1.318558533757165	0	0
1.5	0.435224451864958	25.54596767246933	-93.99691021526814	0	0.9399999998679526	0	44.93031511791626	-10.03296193228479	0	59.87632779206004	1.045039063974834	-5.005888507715297	0	0	44.93031511791626	-10.03296193228479	0	59.87632779206004	1.045039063974834	-5.005888507715297	0	0	-22.68696443945537	-9.561096328683728	5.818137919854927	53.32123084713686	-10.07784738239505	-12.91868653211606	10.77359982995052	1.31815472096431	0	0	0	-12.33435500618999	0	88.70234794084193	1.31815472096431	0	0
1.51	0.4653117436885019	24.68045654089001	-93.75787760018052	0	0.9399999998679526	0	44.93034538049749	-10.03291183409086	0	59.87636993406682	1.045039799491606	-5.005876829656644	0	0	44.93034538049749	-10.03291183409086	0	59.87636993406682	1.045039799491606	-5.005876829656644	0	0	-22.63859665028622	-9.482735056937539	5.669249581374171	52.34500160413067	-10.60784170905271	-12.97176467704223	11.4698801906879	1.317756561983053	0	0	0	-12.33494741456326	0	88.70273985176897	1.317756561983053	0	0
1.52	0.5409690041781301	23.91799110076026	-93.71377982625972	0	0.9399999998679526	0	44.93035927918349	-10.03288894092179	0	59.87638935700328	1.045040138485798	-5.005871499250941	0	0	44.93035927918349	-10.03288894092179	0	59.87638935700328	1.045040138485798	-5.005871499250941	0	0	-22.97648686199455	-9.519646013090743	5.590987337719494	52.0172724410417	-11.1196415330343	-12.93348834962928	12.01025385374544	1.317573438667674	0	0	0	-12.33522020349644	0	88.70292010145408	1.317573438667674	0	0
